<svg id="组_3_拷贝_3" data-name="组 3 拷贝 3" xmlns="http://www.w3.org/2000/svg" width="38" height="38" viewBox="0 0 38 38">
  <defs>
    <style>
      .cls-1 {
        fill: #3b82f6;
      }

      .cls-1, .cls-2, .cls-3, .cls-4, .cls-5 {
        fill-rule: evenodd;
      }

      .cls-2, .cls-4 {
        fill: none;
      }

      .cls-2 {
        stroke: #3b82f6;
      }

      .cls-2, .cls-3 {
        stroke-width: 1.9px;
      }

      .cls-3 {
        fill: #999;
      }

      .cls-3, .cls-4 {
        stroke: #fff;
      }

      .cls-4 {
        stroke-width: 0.95px;
      }

      .cls-5 {
        fill: #fff;
      }
    </style>
  </defs>
  <path id="圆角矩形_7" data-name="圆角矩形 7" class="cls-1" d="M5.523,12.351h0a1.028,1.028,0,0,1,1.349.566l5.73,14.01a1.048,1.048,0,0,1-.559,1.364h0a1.028,1.028,0,0,1-1.349-.566l-5.73-14.01A1.049,1.049,0,0,1,5.523,12.351Z"/>
  <path id="圆角矩形_7_拷贝" data-name="圆角矩形 7 拷贝" class="cls-1" d="M27.892,21.659a1.045,1.045,0,0,1-.835,1.218l-16.015,3a1.043,1.043,0,0,1-1.218-.834h0a1.045,1.045,0,0,1,.835-1.219l16.016-3A1.043,1.043,0,0,1,27.892,21.659Z"/>
  <path id="圆角矩形_7_拷贝_2" data-name="圆角矩形 7 拷贝 2" class="cls-1" d="M27.869,12.271h0a1.043,1.043,0,0,1,.916,1.156l-0.939,8.151a1.043,1.043,0,1,1-2.071-.239l0.939-8.151A1.042,1.042,0,0,1,27.869,12.271Z"/>
  <path id="圆角矩形_7_拷贝_3" data-name="圆角矩形 7 拷贝 3" class="cls-1" d="M28.688,13.307a1.044,1.044,0,0,1-.955,1.127L10.922,15.821a1.044,1.044,0,1,1-.171-2.081l16.811-1.387A1.044,1.044,0,0,1,28.688,13.307Z"/>
  <path id="圆角矩形_7_拷贝_4" data-name="圆角矩形 7 拷贝 4" class="cls-1" d="M6.8,13.095h0a1.045,1.045,0,0,1-.93,1.147l-3.957.415a1.044,1.044,0,0,1-1.147-.93h0A1.045,1.045,0,0,1,1.7,12.58l3.957-.415A1.044,1.044,0,0,1,6.8,13.095Z"/>
  <path id="椭圆_7" data-name="椭圆 7" class="cls-2" d="M12.619,27.709A2.3,2.3,0,1,1,10.327,30,2.294,2.294,0,0,1,12.619,27.709Z"/>
  <path id="椭圆_7_拷贝" data-name="椭圆 7 拷贝" class="cls-2" d="M24.559,26.76a2.3,2.3,0,1,1-2.292,2.3A2.294,2.294,0,0,1,24.559,26.76Z"/>
  <path id="圆角矩形_7_拷贝_5" data-name="圆角矩形 7 拷贝 5" class="cls-1" d="M24.609,26.818h0a1,1,0,0,1-.833,1.084L11.9,28.549a0.913,0.913,0,0,1-.863-0.991h0a1,1,0,0,1,.833-1.083l11.876-.647A0.913,0.913,0,0,1,24.609,26.818Z"/>
  <g id="组_2" data-name="组 2">
    <path id="椭圆_3" data-name="椭圆 3" class="cls-3" d="M27.768,4.939A8.434,8.434,0,0,1,36.1,13.471a8.336,8.336,0,1,1-16.668,0A8.434,8.434,0,0,1,27.768,4.939Z"/>
    <path id="椭圆_4" data-name="椭圆 4" class="cls-4" d="M27.853,8.944a4.615,4.615,0,1,1-4.507,4.614A4.562,4.562,0,0,1,27.853,8.944Z"/>
    <path id="椭圆_5" data-name="椭圆 5" class="cls-5" d="M27.833,11.9a1.655,1.655,0,1,1-1.6,1.654A1.626,1.626,0,0,1,27.833,11.9Z"/>
    <path id="形状_1" data-name="形状 1" class="cls-5" d="M27.832,13.558V4.94s3.823,0.4,5.988,2.66c1.959,2.042,2.28,5.958,2.28,5.958H27.832Z"/>
  </g>
</svg>
